<?plantuml 1.2026.2beta1?><svg xmlns="http://www.w3.org/2000/svg" xmlns:xlink="http://www.w3.org/1999/xlink" contentStyleType="text/css" data-diagram-type="DESCRIPTION" height="743px" preserveAspectRatio="none" style="width:1502px;height:743px;background:#FFFFFF;" version="1.1" viewBox="0 0 1502 743" width="1502px" zoomAndPan="magnify"><defs/><g><!--cluster User Device--><g class="cluster" data-qualified-name="User Device" data-source-line="13" id="ent0002"><polygon fill="none" points="513,16,523,6,834,6,834,138.59,824,148.59,513,148.59,513,16" style="stroke:#181818;stroke-width:1;"/><line style="stroke:#181818;stroke-width:1;" x1="824" x2="834" y1="16" y2="6"/><line style="stroke:#181818;stroke-width:1;" x1="513" x2="824" y1="16" y2="16"/><line style="stroke:#181818;stroke-width:1;" x1="824" x2="824" y1="16" y2="148.59"/><text fill="#000000" font-family="sans-serif" font-size="14" font-weight="bold" lengthAdjust="spacing" textLength="93.8096" x="622.5952" y="31.9951">User Device</text></g><!--cluster User Smart Hookups--><g class="cluster" data-qualified-name="User Smart Hookups" data-source-line="18" id="ent0005"><polygon fill="none" points="858,21,868,11,1096,11,1096,133.59,1086,143.59,858,143.59,858,21" style="stroke:#181818;stroke-width:1;"/><line style="stroke:#181818;stroke-width:1;" x1="1086" x2="1096" y1="21" y2="11"/><line style="stroke:#181818;stroke-width:1;" x1="858" x2="1086" y1="21" y2="21"/><line style="stroke:#181818;stroke-width:1;" x1="1086" x2="1086" y1="21" y2="143.59"/><text fill="#000000" font-family="sans-serif" font-size="14" font-weight="bold" lengthAdjust="spacing" textLength="162.1484" x="891.9258" y="36.9951">User Smart Hookups</text></g><!--cluster Gateway--><g class="cluster" data-qualified-name="Gateway" data-source-line="23" id="ent0007"><polygon fill="none" points="736,207.59,746,197.59,954,197.59,954,362.19,944,372.19,736,372.19,736,207.59" style="stroke:#181818;stroke-width:1;"/><line style="stroke:#181818;stroke-width:1;" x1="944" x2="954" y1="207.59" y2="197.59"/><line style="stroke:#181818;stroke-width:1;" x1="736" x2="944" y1="207.59" y2="207.59"/><line style="stroke:#181818;stroke-width:1;" x1="944" x2="944" y1="207.59" y2="372.19"/><text fill="#000000" font-family="sans-serif" font-size="14" font-style="italic" lengthAdjust="spacing" textLength="83.4668" x="799.2666" y="223.5851">&#171;container&#187;</text><text fill="#000000" font-family="sans-serif" font-size="14" font-weight="bold" lengthAdjust="spacing" textLength="68.6328" x="806.6836" y="239.882">Gateway</text></g><!--cluster Frontend Service--><g class="cluster" data-qualified-name="Frontend Service" data-source-line="36" id="ent0011"><polygon fill="none" points="16,207.59,26,197.59,227,197.59,227,362.19,217,372.19,16,372.19,16,207.59" style="stroke:#181818;stroke-width:1;"/><line style="stroke:#181818;stroke-width:1;" x1="217" x2="227" y1="207.59" y2="197.59"/><line style="stroke:#181818;stroke-width:1;" x1="16" x2="217" y1="207.59" y2="207.59"/><line style="stroke:#181818;stroke-width:1;" x1="217" x2="217" y1="207.59" y2="372.19"/><text fill="#000000" font-family="sans-serif" font-size="14" font-style="italic" lengthAdjust="spacing" textLength="83.4668" x="75.7666" y="223.5851">&#171;container&#187;</text><text fill="#000000" font-family="sans-serif" font-size="14" font-weight="bold" lengthAdjust="spacing" textLength="135.3037" x="49.8481" y="239.882">Frontend Service</text></g><!--cluster User Service--><g class="cluster" data-qualified-name="User Service" data-source-line="39" id="ent0013"><polygon fill="none" points="251,207.59,261,197.59,447,197.59,447,362.19,437,372.19,251,372.19,251,207.59" style="stroke:#181818;stroke-width:1;"/><line style="stroke:#181818;stroke-width:1;" x1="437" x2="447" y1="207.59" y2="197.59"/><line style="stroke:#181818;stroke-width:1;" x1="251" x2="437" y1="207.59" y2="207.59"/><line style="stroke:#181818;stroke-width:1;" x1="437" x2="437" y1="207.59" y2="372.19"/><text fill="#000000" font-family="sans-serif" font-size="14" font-style="italic" lengthAdjust="spacing" textLength="83.4668" x="303.2666" y="223.5851">&#171;container&#187;</text><text fill="#000000" font-family="sans-serif" font-size="14" font-weight="bold" lengthAdjust="spacing" textLength="99.1758" x="295.4121" y="239.882">User Service</text></g><!--cluster Map Service--><g class="cluster" data-qualified-name="Map Service" data-source-line="42" id="ent0015"><polygon fill="none" points="471,207.59,481,197.59,665,197.59,665,362.19,655,372.19,471,372.19,471,207.59" style="stroke:#181818;stroke-width:1;"/><line style="stroke:#181818;stroke-width:1;" x1="655" x2="665" y1="207.59" y2="197.59"/><line style="stroke:#181818;stroke-width:1;" x1="471" x2="655" y1="207.59" y2="207.59"/><line style="stroke:#181818;stroke-width:1;" x1="655" x2="655" y1="207.59" y2="372.19"/><text fill="#000000" font-family="sans-serif" font-size="14" font-style="italic" lengthAdjust="spacing" textLength="83.4668" x="522.2666" y="223.5851">&#171;container&#187;</text><text fill="#000000" font-family="sans-serif" font-size="14" font-weight="bold" lengthAdjust="spacing" textLength="96.4756" x="515.7622" y="239.882">Map Service</text></g><!--cluster Monitoring Service--><g class="cluster" data-qualified-name="Monitoring Service" data-source-line="47" id="ent0017"><polygon fill="none" points="1025,207.59,1035,197.59,1265,197.59,1265,362.19,1255,372.19,1025,372.19,1025,207.59" style="stroke:#181818;stroke-width:1;"/><line style="stroke:#181818;stroke-width:1;" x1="1255" x2="1265" y1="207.59" y2="197.59"/><line style="stroke:#181818;stroke-width:1;" x1="1025" x2="1255" y1="207.59" y2="207.59"/><line style="stroke:#181818;stroke-width:1;" x1="1255" x2="1255" y1="207.59" y2="372.19"/><text fill="#000000" font-family="sans-serif" font-size="14" font-style="italic" lengthAdjust="spacing" textLength="83.4668" x="1099.2666" y="223.5851">&#171;container&#187;</text><text fill="#000000" font-family="sans-serif" font-size="14" font-weight="bold" lengthAdjust="spacing" textLength="149.3926" x="1066.3037" y="239.882">Monitoring Service</text></g><!--cluster Alert Service--><g class="cluster" data-qualified-name="Alert Service" data-source-line="50" id="ent0019"><polygon fill="none" points="527,439.33,537,429.33,725,429.33,725,593.93,715,603.93,527,603.93,527,439.33" style="stroke:#181818;stroke-width:1;"/><line style="stroke:#181818;stroke-width:1;" x1="715" x2="725" y1="439.33" y2="429.33"/><line style="stroke:#181818;stroke-width:1;" x1="527" x2="715" y1="439.33" y2="439.33"/><line style="stroke:#181818;stroke-width:1;" x1="715" x2="715" y1="439.33" y2="603.93"/><text fill="#000000" font-family="sans-serif" font-size="14" font-style="italic" lengthAdjust="spacing" textLength="83.4668" x="580.2666" y="455.3251">&#171;container&#187;</text><text fill="#000000" font-family="sans-serif" font-size="14" font-weight="bold" lengthAdjust="spacing" textLength="101.8008" x="571.0996" y="471.622">Alert Service</text></g><!--cluster Forecast Service--><g class="cluster" data-qualified-name="Forecast Service" data-source-line="55" id="ent0021"><polygon fill="none" points="749,439.33,759,429.33,973,429.33,973,593.93,963,603.93,749,603.93,749,439.33" style="stroke:#181818;stroke-width:1;"/><line style="stroke:#181818;stroke-width:1;" x1="963" x2="973" y1="439.33" y2="429.33"/><line style="stroke:#181818;stroke-width:1;" x1="749" x2="963" y1="439.33" y2="439.33"/><line style="stroke:#181818;stroke-width:1;" x1="963" x2="963" y1="439.33" y2="603.93"/><text fill="#000000" font-family="sans-serif" font-size="14" font-style="italic" lengthAdjust="spacing" textLength="83.4668" x="815.2666" y="455.3251">&#171;container&#187;</text><text fill="#000000" font-family="sans-serif" font-size="14" font-weight="bold" lengthAdjust="spacing" textLength="131.4277" x="791.2861" y="471.622">Forecast Service</text></g><!--cluster Threshold Service--><g class="cluster" data-qualified-name="Threshold Service" data-source-line="58" id="ent0023"><polygon fill="none" points="997,439.33,1007,429.33,1231,429.33,1231,593.93,1221,603.93,997,603.93,997,439.33" style="stroke:#181818;stroke-width:1;"/><line style="stroke:#181818;stroke-width:1;" x1="1221" x2="1231" y1="439.33" y2="429.33"/><line style="stroke:#181818;stroke-width:1;" x1="997" x2="1221" y1="439.33" y2="439.33"/><line style="stroke:#181818;stroke-width:1;" x1="1221" x2="1221" y1="439.33" y2="603.93"/><text fill="#000000" font-family="sans-serif" font-size="14" font-style="italic" lengthAdjust="spacing" textLength="83.4668" x="1068.2666" y="455.3251">&#171;container&#187;</text><text fill="#000000" font-family="sans-serif" font-size="14" font-weight="bold" lengthAdjust="spacing" textLength="141.7295" x="1039.1353" y="471.622">Threshold Service</text></g><!--cluster Hookup Service--><g class="cluster" data-qualified-name="Hookup Service" data-source-line="61" id="ent0025"><polygon fill="none" points="1255,431.19,1265,421.19,1485,421.19,1485,602.08,1475,612.08,1255,612.08,1255,431.19" style="stroke:#181818;stroke-width:1;"/><line style="stroke:#181818;stroke-width:1;" x1="1475" x2="1485" y1="431.19" y2="421.19"/><line style="stroke:#181818;stroke-width:1;" x1="1255" x2="1475" y1="431.19" y2="431.19"/><line style="stroke:#181818;stroke-width:1;" x1="1475" x2="1475" y1="431.19" y2="612.08"/><text fill="#000000" font-family="sans-serif" font-size="14" font-style="italic" lengthAdjust="spacing" textLength="83.4668" x="1324.2666" y="447.1851">&#171;container&#187;</text><text fill="#000000" font-family="sans-serif" font-size="14" font-weight="bold" lengthAdjust="spacing" textLength="123.3271" x="1304.3364" y="463.482">Hookup Service</text></g><!--entity pc--><g class="entity" data-qualified-name="User Device.pc" data-source-line="14" id="ent0003"><rect fill="#F1F1F1" height="62.5938" rx="2.5" ry="2.5" style="stroke:#181818;stroke-width:0.5;" width="120.4043" x="528.8" y="70"/><rect fill="#F1F1F1" height="10" style="stroke:#181818;stroke-width:0.5;"
                                                                                                                                                                                                                                                                                                                                                                                                                                                                                                                                                                                                                                                                                                                                                                                                                                                                                                                                                                                                                                            width="15" x="629.2043" y="75"/><rect fill="#F1F1F1" height="2" style="stroke:#181818;stroke-width:0.5;" width="4" x="627.2043" y="77"/><rect fill="#F1F1F1" height="2" style="stroke:#181818;stroke-width:0.5;" width="4" x="627.2043" y="81"/><text fill="#000000" font-family="sans-serif" font-size="14" font-style="italic" lengthAdjust="spacing" textLength="63.1162" x="552.444" y="102.9951">&#171;device&#187;</text><text fill="#000000" font-family="sans-serif" font-size="14" lengthAdjust="spacing" textLength="80.4043" x="543.8" y="119.292">Desktop PC</text></g><!--entity mobile--><g class="entity" data-qualified-name="User Device.mobile" data-source-line="15" id="ent0004"><rect fill="#F1F1F1" height="62.5938" rx="2.5" ry="2.5" style="stroke:#181818;stroke-width:0.5;" width="133.7412" x="684.13" y="70"/><rect fill="#F1F1F1" height="10" style="stroke:#181818;stroke-width:0.5;" width="15" x="797.8712" y="75"/><rect fill="#F1F1F1" height="2" style="stroke:#181818;stroke-width:0.5;" width="4" x="795.8712" y="77"/><rect fill="#F1F1F1" height="2" style="stroke:#181818;stroke-width:0.5;" width="4" x="795.8712" y="81"/><text fill="#000000" font-family="sans-serif" font-size="14" font-style="italic" lengthAdjust="spacing" textLength="63.1162" x="714.4425" y="102.9951">&#171;device&#187;</text><text fill="#000000" font-family="sans-serif" font-size="14" lengthAdjust="spacing" textLength="93.7412" x="699.13" y="119.292">Mobile Phone</text></g><!--entity hookups--><g class="entity" data-qualified-name="User Smart Hookups.hookups" data-source-line="19" id="ent0006"><rect fill="#F1F1F1" height="48.5938" rx="2.5" ry="2.5" style="stroke:#181818;stroke-width:0.5;" width="123.6182" x="878.19" y="79"/><rect fill="#F1F1F1" height="48.5938" rx="2.5" ry="2.5" style="stroke:#181818;stroke-width:0.5;" width="123.6182" x="874.19" y="75"/><text fill="#000000" font-family="sans-serif" font-size="14" font-style="italic" lengthAdjust="spacing" textLength="63.1162" x="904.441" y="95.9951">&#171;device&#187;</text><text fill="#000000" font-family="sans-serif" font-size="14" lengthAdjust="spacing" textLength="107.6182" x="882.19" y="112.292">Smart Hookups</text></g><!--entity nginx--><g class="entity" data-qualified-name="Gateway.nginx" data-source-line="24" id="ent0008"><rect fill="#F1F1F1" height="62.5938" rx="2.5" ry="2.5" style="stroke:#181818;stroke-width:0.5;" width="185.5439" x="752.23" y="293.59"/><rect fill="#F1F1F1" height="10" style="stroke:#181818;stroke-width:0.5;" width="15" x="917.7739" y="298.59"/><rect fill="#F1F1F1" height="2" style="stroke:#181818;stroke-width:0.5;" width="4" x="915.7739" y="300.59"/><rect fill="#F1F1F1" height="2" style="stroke:#181818;stroke-width:0.5;" width="4" x="915.7739" y="304.59"/><text fill="#000000" font-family="sans-serif" font-size="14" font-style="italic" lengthAdjust="spacing" textLength="94.3838" x="792.8101" y="326.5851">&#171;WebServer&#187;</text><text fill="#000000" font-family="sans-serif" font-size="14" lengthAdjust="spacing" textLength="145.5439" x="767.23" y="342.882">Nginx Reverse Proxy</text></g><!--entity frontend--><g class="entity" data-qualified-name="Frontend Service.frontend" data-source-line="37" id="ent0012"><rect fill="#F1F1F1" height="62.5938" rx="2.5" ry="2.5" style="stroke:#181818;stroke-width:0.5;" width="149.7373" x="61.13" y="293.59"/><rect fill="#F1F1F1" height="10" style="stroke:#181818;stroke-width:0.5;" width="15" x="190.8673" y="298.59"/><rect fill="#F1F1F1" height="2" style="stroke:#181818;stroke-width:0.5;" width="4" x="188.8673" y="300.59"/><rect fill="#F1F1F1" height="2" style="stroke:#181818;stroke-width:0.5;" width="4" x="188.8673" y="304.59"/><text fill="#000000" font-family="sans-serif" font-size="14" font-style="italic" lengthAdjust="spacing" textLength="80.2402" x="90.8785" y="326.5851">&#171;Frontend&#187;</text><text fill="#000000" font-family="sans-serif" font-size="14" lengthAdjust="spacing" textLength="109.7373" x="76.13" y="342.882">Vue Application</text></g><!--entity user--><g class="entity" data-qualified-name="User Service.user" data-source-line="40" id="ent0014"><rect fill="#F1F1F1" height="62.5938" rx="2.5" ry="2.5" style="stroke:#181818;stroke-width:0.5;" width="164.4961" x="266.75" y="293.59"/><rect fill="#F1F1F1" height="10" style="stroke:#181818;stroke-width:0.5;" width="15" x="411.2461" y="298.59"/><rect fill="#F1F1F1" height="2" style="stroke:#181818;stroke-width:0.5;" width="4" x="409.2461" y="300.59"/><rect fill="#F1F1F1" height="2" style="stroke:#181818;stroke-width:0.5;" width="4" x="409.2461" y="304.59"/><text fill="#000000" font-family="sans-serif" font-size="14" font-style="italic" lengthAdjust="spacing" textLength="68.8721" x="309.562" y="326.5851">&#171;Service&#187;</text><text fill="#000000" font-family="sans-serif" font-size="14" lengthAdjust="spacing" textLength="124.4961" x="281.75" y="342.882">User Microservice</text></g><!--entity map--><g class="entity" data-qualified-name="Map Service.map" data-source-line="43" id="ent0016"><rect fill="#F1F1F1" height="62.5938" rx="2.5" ry="2.5" style="stroke:#181818;stroke-width:0.5;" width="162.1309" x="486.93" y="293.59"/><rect fill="#F1F1F1" height="10" style="stroke:#181818;stroke-width:0.5;" width="15" x="629.0609" y="298.59"/><rect fill="#F1F1F1" height="2" style="stroke:#181818;stroke-width:0.5;" width="4" x="627.0609" y="300.59"/><rect fill="#F1F1F1" height="2" style="stroke:#181818;stroke-width:0.5;" width="4" x="627.0609" y="304.59"/><text fill="#000000" font-family="sans-serif" font-size="14" font-style="italic" lengthAdjust="spacing" textLength="68.8721" x="528.5594" y="326.5851">&#171;Service&#187;</text><text fill="#000000" font-family="sans-serif" font-size="14" lengthAdjust="spacing" textLength="122.1309" x="501.93" y="342.882">Map Microservice</text></g><!--entity monitoring--><g class="entity" data-qualified-name="Monitoring Service.monitoring" data-source-line="48" id="ent0018"><rect fill="#F1F1F1" height="62.5938" rx="2.5" ry="2.5" style="stroke:#181818;stroke-width:0.5;" width="207.4531" x="1041.27" y="293.59"/><rect fill="#F1F1F1" height="10" style="stroke:#181818;stroke-width:0.5;" width="15" x="1228.7231" y="298.59"/><rect fill="#F1F1F1" height="2" style="stroke:#181818;stroke-width:0.5;" width="4" x="1226.7231" y="300.59"/><rect fill="#F1F1F1" height="2" style="stroke:#181818;stroke-width:0.5;" width="4" x="1226.7231" y="304.59"/><text fill="#000000" font-family="sans-serif" font-size="14" font-style="italic" lengthAdjust="spacing" textLength="68.8721" x="1105.5605" y="326.5851">&#171;Service&#187;</text><text fill="#000000" font-family="sans-serif" font-size="14" lengthAdjust="spacing" textLength="167.4531" x="1056.27" y="342.882">Monitoring Microservice</text></g><!--entity alert--><g class="entity" data-qualified-name="Alert Service.alert" data-source-line="51" id="ent0020"><rect fill="#F1F1F1" height="62.5938" rx="2.5" ry="2.5" style="stroke:#181818;stroke-width:0.5;" width="165.9111" x="543.04" y="525.33"/><rect fill="#F1F1F1" height="10" style="stroke:#181818;stroke-width:0.5;" width="15" x="688.9511" y="530.33"/><rect fill="#F1F1F1" height="2" style="stroke:#181818;stroke-width:0.5;" width="4" x="686.9511" y="532.33"/><rect fill="#F1F1F1" height="2" style="stroke:#181818;stroke-width:0.5;" width="4" x="686.9511" y="536.33"/><text fill="#000000" font-family="sans-serif" font-size="14" font-style="italic" lengthAdjust="spacing" textLength="68.8721" x="586.5595" y="558.3251">&#171;Service&#187;</text><text fill="#000000" font-family="sans-serif" font-size="14" lengthAdjust="spacing" textLength="125.9111" x="558.04" y="574.622">Alert Microservice</text></g><!--entity forecast--><g class="entity" data-qualified-name="Forecast Service.forecast" data-source-line="56" id="ent0022"><rect fill="#F1F1F1" height="62.5938" rx="2.5" ry="2.5" style="stroke:#181818;stroke-width:0.5;" width="192.6328" x="764.68" y="525.33"/><rect fill="#F1F1F1" height="10" style="stroke:#181818;stroke-width:0.5;" width="15" x="937.3128" y="530.33"/><rect fill="#F1F1F1" height="2" style="stroke:#181818;stroke-width:0.5;" width="4" x="935.3128" y="532.33"/><rect fill="#F1F1F1" height="2" style="stroke:#181818;stroke-width:0.5;" width="4" x="935.3128" y="536.33"/><text fill="#000000" font-family="sans-serif" font-size="14" font-style="italic" lengthAdjust="spacing" textLength="68.8721" x="821.5604" y="558.3251">&#171;Service&#187;</text><text fill="#000000" font-family="sans-serif" font-size="14" lengthAdjust="spacing" textLength="152.6328" x="779.68" y="574.622">Forecast Microservice</text></g><!--entity threshold--><g class="entity" data-qualified-name="Threshold Service.threshold" data-source-line="59" id="ent0024"><rect fill="#F1F1F1" height="62.5938" rx="2.5" ry="2.5" style="stroke:#181818;stroke-width:0.5;" width="201.8887" x="1013.06" y="525.33"/><rect fill="#F1F1F1" height="10" style="stroke:#181818;stroke-width:0.5;" width="15" x="1194.9487" y="530.33"/><rect fill="#F1F1F1" height="2" style="stroke:#181818;stroke-width:0.5;" width="4" x="1192.9487" y="532.33"/><rect fill="#F1F1F1" height="2" style="stroke:#181818;stroke-width:0.5;" width="4" x="1192.9487" y="536.33"/><text fill="#000000" font-family="sans-serif" font-size="14" font-style="italic" lengthAdjust="spacing" textLength="68.8721" x="1074.5683" y="558.3251">&#171;Service&#187;</text><text fill="#000000" font-family="sans-serif" font-size="14" lengthAdjust="spacing" textLength="161.8887" x="1028.06" y="574.622">Threshold Microservice</text></g><!--entity hookup--><g class="entity" data-qualified-name="Hookup Service.hookup" data-source-line="62" id="ent0026"><rect fill="#F1F1F1" height="78.8906" rx="2.5" ry="2.5" style="stroke:#181818;stroke-width:0.5;" width="197.8555" x="1271.07" y="517.19"/><rect fill="#F1F1F1" height="10" style="stroke:#181818;stroke-width:0.5;" width="15" x="1448.9255" y="522.19"/><rect fill="#F1F1F1" height="2" style="stroke:#181818;stroke-width:0.5;" width="4" x="1446.9255" y="524.19"/><rect fill="#
F1F1F1" height="2" style="stroke:#181818;stroke-width:0.5;" width="4" x="1446.9255" y="528.19"/><text fill="#000000" font-family="sans-serif" font-size="14" font-style="italic" lengthAdjust="spacing" textLength="68.8721" x="1330.5617" y="550.1851">&#171;Service&#187;</text><text fill="#000000" font-family="sans-serif" font-size="14" lengthAdjust="spacing" textLength="110.9746" x="1307.2853" y="566.482">Smart Furniture</text><text fill="#000000" font-family="sans-serif" font-size="14" lengthAdjust="spacing" textLength="153.4053" x="1290.5202" y="582.7789">Hookups Microservice</text></g><!--entity mongodb--><g class="entity" data-qualified-name="mongodb" data-source-line="29" id="ent0009"><rect fill="#F1F1F1" height="62.5938" rx="2.5" ry="2.5" style="stroke:#181818;stroke-width:0.5;" width="125.9316" x="643.03" y="675.08"/><rect fill="#F1F1F1" height="10" style="stroke:#181818;stroke-width:0.5;" width="15" x="748.9616" y="680.08"/><rect fill="#F1F1F1" height="2" style="stroke:#181818;stroke-width:0.5;" width="4" x="746.9616" y="682.08"/><rect fill="#F1F1F1" height="2" style="stroke:#181818;stroke-width:0.5;" width="4" x="746.9616" y="686.08"/><text fill="#000000" font-family="sans-serif" font-size="14" font-style="italic" lengthAdjust="spacing" textLength="83.9316" x="659.03" y="708.0751">&#171;Database&#187;</text><text fill="#000000" font-family="sans-serif" font-size="14" lengthAdjust="spacing" textLength="67.3545" x="667.3186" y="724.372">MongoDB</text></g><!--entity influxdb--><g class="entity" data-qualified-name="influxdb" data-source-line="30" id="ent0010"><rect fill="#F1F1F1" height="62.5938" rx="2.5" ry="2.5" style="stroke:#181818;stroke-width:0.5;" width="125.9316" x="1330.03" y="293.59"/><rect fill="#F1F1F1" height="10" style="stroke:#181818;stroke-width:0.5;" width="15" x="1435.9616" y="298.59"/><rect fill="#F1F1F1" height="2" style="stroke:#181818;stroke-width:0.5;" width="4" x="1433.9616" y="300.59"/><rect fill="#F1F1F1" height="2" style="stroke:#181818;stroke-width:0.5;" width="4" x="1433.9616" y="304.59"/><text fill="#000000" font-family="sans-serif" font-size="14" font-style="italic" lengthAdjust="spacing" textLength="83.9316" x="1346.03" y="326.5851">&#171;Database&#187;</text><text fill="#000000" font-family="sans-serif" font-size="14" lengthAdjust="spacing" textLength="59.3633" x="1358.3142" y="342.882">InfluxDB</text></g><!--link mobile to nginx--><g class="link" data-entity-1="ent0004" data-entity-2="ent0008" data-link-type="dependency" data-source-line="68" id="lnk27"><path d="M763.87,132.64 C781.77,174.84 811.6566,245.2965 829.6366,287.6765" fill="none" id="mobile-to-nginx" style="stroke:#181818;stroke-width:1;"/><polygon fill="#181818" points="831.98,293.2,832.1473,283.3526,830.0272,288.5971,824.7826,286.4771,831.98,293.2" style="stroke:#181818;stroke-width:1;"/><text fill="#000000" font-family="sans-serif" font-size="13" lengthAdjust="spacing" textLength="33.4966" x="785" y="177.6569">HTTP</text></g><!--link hookups to nginx--><g class="link" data-entity-1="ent0006" data-entity-2="ent0008" data-link-type="dependency" data-source-line="69" id="lnk28"><path d="M927.33,127.71 C910.16,168.64 878.7517,243.4674 860.2417,287.5774" fill="none" id="hookups-to-nginx" style="stroke:#181818;stroke-width:1;"/><polygon fill="#181818" points="857.92,293.11,865.0909,286.3589,859.8547,288.4995,857.7141,283.2633,857.92,293.11" style="stroke:#181818;stroke-width:1;"/><text fill="#000000" font-family="sans-serif" font-size="13" lengthAdjust="spacing" textLength="33.4966" x="911" y="177.6569">HTTP</text></g><!--link frontend to nginx--><g class="link" data-entity-1="ent0012" data-entity-2="ent0008" data-link-type="association" data-source-line="72" id="lnk30"><path d="M165.91,293.24 C199.99,257.19 251,203.22 251,203.22 C251,203.22 665,203.22 665,203.22 C665,203.22 744.84,257.19 798.18,293.24" fill="none" id="frontend-nginx" style="stroke:#181818;stroke-width:1;"/><text fill="#000000" font-family="sans-serif" font-size="13" lengthAdjust="spacing" textLength="67.501" x="284.5" y="177.6569">&#171;intranet&#187;</text></g><!--link user to nginx--><g class="link" data-entity-1="ent0014" data-entity-2="ent0008" data-link-type="association" data-source-line="73" id="lnk32"><path d="M380.74,293.24 C416.88,257.19 471,203.22 471,203.22 C471,203.22 665,203.22 665,203.22 C665,203.22 744.84,257.19 798.18,293.24" fill="none" id="user-nginx" style="stroke:#181818;stroke-width:1;"/><text fill="#000000" font-family="sans-serif" font-size="13" lengthAdjust="spacing" textLength="67.501" x="550.5" y="177.6569">&#171;intranet&#187;</text></g><!--link map to nginx--><g class="link" data-entity-1="ent0016" data-entity-2="ent0008" data-link-type="association" data-source-line="74" id="lnk34"><path d="M649.24,324.89 C681.48,324.89 718.76,324.89 752.07,324.89" fill="none" id="map-nginx" style="stroke:#181818;stroke-width:1;"/><text fill="#000000" font-family="sans-serif" font-size="13" lengthAdjust="spacing" textLength="67.501" x="667.15" y="317.9569">&#171;intranet&#187;</text></g><!--link nginx to monitoring--><g class="link" data-entity-1="ent0008" data-entity-2="ent0018" data-link-type="association" data-source-line="76" id="lnk35"><path d="M937.87,324.89 C970.48,324.89 1007.32,324.89 1040.8,324.89" fill="none" id="nginx-monitoring" style="stroke:#181818;stroke-width:1;"/><text fill="#000000" font-family="sans-serif" font-size="13" lengthAdjust="spacing" textLength="67.501" x="956.02" y="317.9569">&#171;intranet&#187;</text></g><!--link nginx to alert--><g class="link" data-entity-1="ent0008" data-entity-2="ent0020" data-link-type="association" data-source-line="77" id="lnk36"><path d="M808.93,356.67 C790.54,372.37 772,388.19 772,388.19 C772,388.19 749,413.19 749,413.19 C749,413.19 688.53,483.22 652.39,525.07" fill="none" id="nginx-alert" style="stroke:#181818;stroke-width:1;"/><text fill="#000000" font-family="sans-serif" font-size="13" lengthAdjust="spacing" textLength="67.501" x="773" y="401.2569">&#171;intranet&#187;</text></g><!--link nginx to forecast--><g class="link" data-entity-1="ent0008" data-entity-2="ent0022" data-link-type="association" data-source-line="79" id="lnk37"><path d="M847.12,356.4 C850.18,400.34 855.8,480.99 858.87,525" fill="none" id="nginx-forecast" style="stroke:#181818;stroke-width:1;"/><text fill="#000000" font-family="sans-serif" font-size="13" lengthAdjust="spacing" textLength="67.501" x="851" y="401.2569">&#171;intranet&#187;</text></g><!--link nginx to threshold--><g class="link" data-entity-1="ent0008" data-entity-2="ent0024" data-link-type="association" data-source-line="80" id="lnk38"><path d="M890.13,356.67 C926.98,381.8 973,413.19 973,413.19 C973,413.19 1042.32,483.22 1083.75,525.07" fill="none" id="nginx-threshold" style="stroke:#181818;stroke-width:1;"/><text fill="#000000" font-family="sans-serif" font-size="13" lengthAdjust="spacing" textLength="67.501" x="960" y="401.2569">&#171;intranet&#187;</text></g><!--link nginx to hookup--><g class="link" data-entity-1="ent0008" data-entity-2="ent0026" data-link-type="association" data-source-line="81" id="lnk39"><path d="M938.16,353.99 C982.08,367.24 1025,380.19 1025,380.19 C1025,380.19 1231,413.19 1231,413.19 C1231,413.19 1290.86,474.53 1332.02,516.71" fill="none" id="nginx-hookup" style="stroke:#181818;stroke-width:1;"/><text fill="#000000" font-family="sans-serif" font-size="13" lengthAdjust="spacing" textLength="67.501" x="1176" y="401.2569">&#171;intranet&#187;</text></g><!--link user to mongodb--><g class="link" data-entity-1="ent0014" data-entity-2="ent0009" data-link-type="dependency" data-source-line="84" id="lnk40"><path d="M356.92,356.54 C376.38,431.89 425,620.08 425,620.08 C425,620.08 495,645.08 495,645.08 C495,645.08 574.7709,667.8714 636.9209,685.6314" fill="none" id="user-to-mongodb" style="stroke:#181818;stroke-width:1;"/><polygon fill="#181818" points="642.69,687.28,635.1354,680.9611,637.8824,685.9062,632.9373,688.6532,642.69,687.28" style="stroke:#181818;stroke-width:1;"/><text fill="#000000" font-family="sans-serif" font-size="13" lengthAdjust="spacing" textLength="45.6904" x="426" y="561.1969">&#171;uses&#187;</text></g><!--link map to mongodb--><g class="link" data-entity-1="ent0016" data-entity-2="ent0009" data-link-type="dependency" data-source-line="85" id="lnk41"><path d="M537.22,356.42 C511.85,381.59 480,413.19 480,413.19 C480,413.19 480,620.08 480,620.08 C480,620.08 570.2764,654.1517 637.1364,679.3817" fill="none" id="map-to-mongodb" style="stroke:#181818;stroke-width:1;"/><polygon fill="#181818" points="642.75,681.5,635.7418,674.5801,638.072,679.7347,632.9174,682.0649,642.75,681.5" style="stroke:#181818;stroke-width:1;"/><text fill="#000000" font-family="sans-serif" font-size="13" lengthAdjust="spacing" textLength="45.6904" x="481" y="561.1969">&#171;uses&#187;</text></g><!--link alert to mongodb--><g class="link" data-entity-1="ent0020" data-entity-2="ent0009" data-link-type="dependency" data-source-line="86" id="lnk42"><path d="M642.58,588.24 C656.31,613.6 672.8625,644.1741 686.5925,669.5241" fill="none" id="alert-to-mongodb" style="stroke:#181818;stroke-width:1;"/><polygon fill="#181818" points="689.45,674.8,688.681,664.9812,687.0688,670.4034,681.6465,668.7912,689.45,674.8" style="stroke:#181818;stroke-width:1;"/><text fill="#000000" font-family="sans-serif" font-size="13" lengthAdjust="spacing" textLength="45.6904" x="674" y="641.1469">&#171;uses&#187;</text></g><!--link forecast to mongodb--><g class="link" data-entity-1="ent0022" data-entity-2="ent0009" data-link-type="dependency" data-source-line="87" id="lnk43"><path d="M828.88,588.24 C802.28,613.6 769.0135,645.3106 742.4135,670.6606" fill="none" id="forecast-to-mongodb" style="stroke:#181818;stroke-width:1;"/><polygon fill="#181818" points="738.07,674.8,747.3448,671.4866,741.6896,671.3505,741.8256,665.6953,738.07,674.8" style="stroke:#181818;stroke-width:1;"/><text fill="#000000" font-family="sans-serif" font-size="13" lengthAdjust="spacing" textLength="
45.6904" x="784" y="641.1469">&#171;uses&#187;</text></g><!--link threshold to mongodb--><g class="link" data-entity-1="ent0024" data-entity-2="ent0009" data-link-type="dependency" data-source-line="88" id="lnk44"><path d="M1044.74,588.3 C1009.08,604.1 973,620.08 973,620.08 C973,620.08 853.9455,658.1142 774.9955,683.3342" fill="none" id="threshold-to-mongodb" style="stroke:#181818;stroke-width:1;"/><polygon fill="#181818" points="769.28,685.16,779.0704,686.2317,774.0429,683.6385,776.636,678.611,769.28,685.16" style="stroke:#181818;stroke-width:1;"/><text fill="#000000" font-family="sans-serif" font-size="13" lengthAdjust="spacing" textLength="45.6904" x="946" y="641.1469">&#171;uses&#187;</text></g><!--link hookup to mongodb--><g class="link" data-entity-1="ent0026" data-entity-2="ent0009" data-link-type="dependency" data-source-line="89" id="lnk45"><path d="M1283.55,596.47 C1255.28,609.17 1231,620.08 1231,620.08 C1231,620.08 914.8824,671.438 775.2524,694.118" fill="none" id="hookup-to-mongodb" style="stroke:#181818;stroke-width:1;"/><polygon fill="#181818" points="769.33,695.08,778.8549,697.5853,774.2653,694.2784,777.5723,689.6888,769.33,695.08" style="stroke:#181818;stroke-width:1;"/><text fill="#000000" font-family="sans-serif" font-size="13" lengthAdjust="spacing" textLength="45.6904" x="1177" y="641.1469">&#171;uses&#187;</text></g><!--link monitoring to influxdb--><g class="link" data-entity-1="ent0018" data-entity-2="ent0010" data-link-type="dependency" data-source-line="90" id="lnk46"><path d="M1249.1,324.89 C1276.54,324.89 1299.31,324.89 1323.85,324.89" fill="none" id="monitoring-to-influxdb" style="stroke:#181818;stroke-width:1;"/><polygon fill="#181818" points="1329.85,324.89,1320.85,320.89,1324.85,324.89,1320.85,328.89,1329.85,324.89" style="stroke:#181818;stroke-width:1;"/><text fill="#000000" font-family="sans-serif" font-size="13" lengthAdjust="spacing" textLength="45.6904" x="1266.88" y="317.9569">&#171;uses&#187;</text></g><?plantuml-src ZLLDRziu4BthLmnSe4aE3j2FInU10JbINGA9avMK5XiiiA3biKs49WMIIXCizhztACgIajHUws30cZVpPXuVH_P1g8eRleLIRokjKBdSFKk4UYi_HhQBBd75Q-aAV7An56kr9I2Kz8DcW992eNkk42ejd_sVA3g1yNWCUS6k6DocMNupZw_O_NrSC1-Wy9yrMgV1e5eY251wAI2Pmjg8jG2ajXJ84suhT8Jwb0pO28hmRmJqJ7dvi3QwLijBBRMvk5Wk_g5Cnwa7Cvd0kxHv0bQR9Pezk2_D4_stQ_p3ETpbQGRlWSsBD9kdHTDsGpswisWWmKTHugXjf5CHHWdQ1wShkBqS0H4rCABW5ghoDVPQBmI9VhkX_w_HsoRcMngmvbjk77pJ-g6kR4yk9PPEQ6LXz0hnikOclExd_7WEixX8VyH_mMKwBxBuAXqCEkCEV_9dNsMerfkHvskXdY33HpIMfZ7wgSdvWOiSpMEJG-JAethgJ-UGn4KyZVCqXrFlb9JE6MOPcx6RizObTrQ3r639RwYTg3IyERjoWpINTwfGWhnYTMKuL2HMwS-Q6ocY5vAhjKwclh-4ExxWjjER0il54ClKIjPFlmEB9aBetJIVpu7yyftTCpXDM5vaR7h7oEmnPF5ibcPnc8ZGEPlxUDng_DNGB7G9m4lLEEf_nFvU8yHL9KN9_P5x_Av6w6tL_YEfXyuvidm3lXQbqRRFQ9D3_Pe2NUrhNXrTscCFLjxoAlWZIGSAqOdHkHgXriSpzIc72JjSDr0iaUxFiKG1VP23UqWOYxoUt-pENHiikJsUgaiuoBPgKTqynSQWtMXvlC7wZ8DCRWVhgCBIEPedRAgljQ4pg0t2tsgtjWuJXoNMBv8ilOhlsSsSxMuOKsjgpUeeh51wFGdB1_w0RqLn6xLhy6s0aZDTE--RTlVHPd8e9J-B0d0iSUN6tHsZn8iBePpXz0MSJ5w2_4Kv222_luxl0FGPt7X4R-JV5sfnZSdsrLhgdshSEMDFeG3g3lKWAkZtXku4BhLIf3oj9VgOjmiJJccbsBEeKSChtYxQ9frUMahrGkm9XSds1BkPziJxSVO0sadsjTMhtmezwJR_0FSB?></g></svg>