<?plantuml 1.2026.1beta5?>
<svg xmlns="http://www.w3.org/2000/svg" xmlns:xlink="http://www.w3.org/1999/xlink" contentStyleType="text/css" data-diagram-type="DESCRIPTION" height="369px" preserveAspectRatio="none" style="width:364px;height:369px;background:#FFFFFF;" version="1.1" viewBox="0 0 364 369" width="364px" zoomAndPan="magnify"><defs/><g><!--cluster ECO--><g class="cluster" data-qualified-name="ECO" data-source-line="6" id="ent0003"><rect fill="none" height="356" rx="2.5" ry="2.5" style="stroke:#181818;stroke-width:1;" width="276.12" x="81.91" y="7"/><text fill="#000000" font-family="sans-serif" font-size="14" font-weight="bold" lengthAdjust="spacing" textLength="31.7393" x="204.1004" y="21.9951">ECO</text></g><!--entity UC1--><g class="entity" data-qualified-name="ECO.UC1" data-source-line="7" id="ent0004"><ellipse cx="219.9693" cy="320.9999" fill="#F1F1F1" rx="117.9993" ry="25.9999" style="stroke:#181818;stroke-width:0.5;"/><text fill="#000000" font-family="sans-serif" font-size="14" lengthAdjust="spacing" textLength="185.7871" x="127.0757" y="320.2385">Filter Utility Consumptions</text><text fill="#000000" font-family="sans-serif" font-size="14" lengthAdjust="spacing" textLength="129.0898" x="155.4244" y="336.5354">(User/Zone/Utility)</text></g><!--entity UC2--><g class="entity" data-qualified-name="ECO.UC2" data-source-line="8" id="ent0005"><ellipse cx="219.9694" cy="233.0019" fill="#F1F1F1" rx="122.0594" ry="26.8119" style="stroke:#181818;stroke-width:0.5;"/><text fill="#000000" font-family="sans-serif" font-size="14" lengthAdjust="spacing" textLength="197.9688" x="120.985" y="232.5666">Analyze Utility Consumption</text><text fill="#000000" font-family="sans-serif" font-size="14" lengthAdjust="spacing" textLength="138.6123" x="150.6633" y="248.8635">(Period/Granularity)</text></g><!--entity UC3--><g class="entity" data-qualified-name="ECO.UC3" data-source-line="9" id="ent0006"><ellipse cx="219.9667" cy="149.9993" fill="#F1F1F1" rx="93.1467" ry="21.0293" style="stroke:#181818;stroke-width:0.5;"/><text fill="#000000" font-family="sans-serif" font-size="14" lengthAdjust="spacing" textLength="160.8291" x="139.5521" y="154.6478">View Real-Time Meters</text></g><!--entity UC4--><g class="entity" data-qualified-name="ECO.UC4" data-source-line="10" id="ent0007"><ellipse cx="219.9657" cy="68.0011" fill="#F1F1F1" rx="117.7557" ry="25.9511" style="stroke:#181818;stroke-width:0.5;"/><text fill="#000000" font-family="sans-serif" font-size="14" lengthAdjust="spacing" textLength="214.5596" x="112.6859" y="72.6496">View Map with Real-Time Data</text></g><!--entity u--><g class="entity" data-qualified-name="u" data-source-line="4" id="ent0002"><ellipse cx="21.9551" cy="162.35" fill="#F1F1F1" rx="8" ry="8" style="stroke:#181818;stroke-width:0.5;"/><path d="M21.9551,170.35 L21.9551,197.35 M8.9551,178.35 L34.9551,178.35 M21.9551,197.35 L8.9551,212.35 M21.9551,197.35 L34.9551,212.35" fill="none" style="stroke:#181818;stroke-width:0.5;"/><text fill="#000000" font-family="sans-serif" font-size="14" lengthAdjust="spacing" textLength="31.9102" x="6" y="226.8451">User</text></g><!--link u to UC1--><g class="link" data-entity-1="ent0002" data-entity-2="ent0004" data-link-type="dependency" data-source-line="14" id="lnk8"><path d="M38.32,230.31 C46.65,246.76 58.45,264.93 73.91,277 C89.57,289.22 102.9312,296.1528 121.9912,302.5428" fill="none" id="u-to-UC1" style="stroke:#181818;stroke-width:1;"/><polygon fill="#181818" points="127.68,304.45,120.4183,297.7966,122.9393,302.8607,117.8753,305.3817,127.68,304.45" style="stroke:#181818;stroke-width:1;"/></g><!--link u to UC2--><g class="link" data-entity-1="ent0002" data-entity-2="ent0005" data-link-type="dependency" data-source-line="15" id="lnk9"><path d="M38.34,195.22 C58.46,199.43 89.447,205.912 124.647,213.272" fill="none" id="u-to-UC2" style="stroke:#181818;stroke-width:1;"/><polygon fill="#181818" points="130.52,214.5,122.5292,208.7427,125.6258,213.4767,120.8919,216.5733,130.52,214.5" style="stroke:#181818;stroke-width:1;"/></g><!--link u to UC3--><g class="link" data-entity-1="ent0002" data-entity-2="ent0006" data-link-type="dependency" data-source-line="16" id="lnk10"><path d="M38.34,188.7 C62.43,183.54 104.6532,174.4974 145.1532,165.8174" fill="none" id="u-to-UC3" style="stroke:#181818;stroke-width:1;"/><polygon fill="#181818" points="151.02,164.56,141.3816,162.5349,146.131,165.6078,143.0581,170.3572,151.02,164.56" style="stroke:#181818;stroke-width:1;"/></g><!--link u to UC4--><g class="link" data-entity-1="ent0002" data-entity-2="ent0007" data-link-type="dependency" data-source-line="17" id="lnk11"><path d="M38.23,156.27 C46.65,140.37 58.55,122.64 73.91,111 C89.5,99.18 102.6131,92.4728 121.4331,86.2528" fill="none" id="u-to-UC4" style="stroke:#181818;stroke-width:1;"/><polygon fill="#181818" points="127.13,84.37,117.3294,83.3963,122.3826,85.939,119.8398,90.9922,127.13,84.37" style="stroke:#181818;stroke-width:1;"/></g><?plantuml-src ROxDQiD038JlUWhXKtimfadEXUB-d49BM_TGUX6EueYiTurMIt1BtxrsS4q2qMdGZ3wDuwsX1LHfTeORKQvDWeUu5z-HKeiTrNjg-CrwnpZQv1l705HRKCogo9eXHKm0iulPG_cSuG_WC2boJN7OFOepLgnCd5YFPV0njTtuBdxvgn5KV0RFnHIuFcAhykQSSkV9zTzy2JDGNbWbR8ed9PySwGbcSOxv43xWAvFBtwLbNFDGBKxHvONecZeyYErERkx9QBfO0Vm29CppssFZVxMOrN9Mgpy0?></g><script xmlns=""/></svg>