<?plantuml 1.2026.1beta5?>
<svg xmlns="http://www.w3.org/2000/svg" xmlns:xlink="http://www.w3.org/1999/xlink" contentStyleType="text/css" data-diagram-type="DESCRIPTION" height="1473px" preserveAspectRatio="none" style="width:448px;height:1473px;background:#FFFFFF;" version="1.1" viewBox="0 0 448 1473" width="448px" zoomAndPan="magnify"><defs/><g><!--cluster Smart Utility Platform (Admin)--><g class="cluster" data-qualified-name="Smart Utility Platform .Admin." data-source-line="6" id="ent0003"><rect fill="none" height="1460" rx="2.5" ry="2.5" style="stroke:#181818;stroke-width:1;" width="371.82" x="70.86" y="7"/><text fill="#000000" font-family="sans-serif" font-size="14" font-weight="bold" lengthAdjust="spacing" textLength="242.0195" x="135.7602" y="21.9951">Smart Utility Platform (Admin)</text></g><!--cluster Floor plan--><g class="cluster" data-qualified-name="Smart Utility Platform .Admin..Floor plan" data-source-line="7" id="ent0004"><rect fill="none" height="95" rx="2.5" ry="2.5" style="stroke:#181818;stroke-width:1;" width="224.05" x="144.25" y="1348"/><text fill="#000000" font-family="sans-serif" font-size="14" font-weight="bold" lengthAdjust="spacing" textLength="79.6113" x="216.4693" y="1362.9951">Floor plan</text></g><!--cluster Zone Management--><g class="cluster" data-qualified-name="Smart Utility Platform .Admin..Zone Management" data-source-line="10" id="ent0006"><rect fill="none" height="209" rx="2.5" ry="2.5" style="stroke:#181818;stroke-width:1;" width="162.14" x="175.7" y="1115"/><text fill="#000000" font-family="sans-serif" font-size="14" font-weight="bold" lengthAdjust="spacing" textLength="147.1572" x="183.1914" y="1129.9951">Zone Management</text></g><!--cluster Smart Furniture Hookups Management--><g class="cluster" data-qualified-name="Smart Utility Platform .Admin..Smart Furniture Hookups Management" data-source-line="16" id="ent0010"><rect fill="none" height="275" rx="2.5" ry="2.5" style="stroke:#181818;stroke-width:1;" width="323.82" x="94.86" y="816"/><text fill="#000000" font-family="sans-serif" font-size="14" font-weight="bold" lengthAdjust="spacing" textLength="308.2324" x="102.6538" y="830.9951">Smart Furniture Hookups Management</text></g><!--cluster Thresholds Management--><g class="cluster" data-qualified-name="Smart Utility Platform .Admin..Thresholds Management" data-source-line="22" id="ent0014"><rect fill="none" height="294" rx="2.5" ry="2.5" style="stroke:#181818;stroke-width:1;" width="209.79" x="151.38" y="498"/><text fill="#000000" font-family="sans-serif" font-size="14" font-weight="bold" lengthAdjust="spacing" textLength="194.9131" x="158.8185" y="512.9951">Thresholds Management</text></g><!--cluster Household Users Management--><g class="cluster" data-qualified-name="Smart Utility Platform .Admin..Household Users Management" data-source-line="29" id="ent0019"><rect fill="none" height="247" rx="2.5" ry="2.5" style="stroke:#181818;stroke-width:1;" width="255.07" x="128.74" y="227"/><text fill="#000000" font-family="sans-serif" font-size="14" font-weight="bold" lengthAdjust="spacing" textLength="240.7686" x="135.8907" y="241.9951">Household Users Management</text></g><!--cluster Alerts Management--><g class="cluster" data-qualified-name="Smart Utility Platform .Admin..Alerts Management" data-source-line="35" id="ent0023"><rect fill="none" height="153" rx="2.5" ry="2.5" style="stroke:#181818;stroke-width:1;" width="193.87" x="159.34" y="50"/><text fill="#000000" font-family="sans-serif" font-size="14" font-weight="bold" lengthAdjust="spacing" textLength="154.9844" x="178.7828" y="64.9951">Alerts Management</text></g><!--entity UC_FP--><g class="entity" data-qualified-name="Smart Utility Platform .Admin..Floor plan.UC_FP" data-source-line="8" id="ent0005"><ellipse cx="256.2741" cy="1405.0048" fill="#F1F1F1" rx="96.0241" ry="21.6048" style="stroke:#181818;stroke-width:0.5;"/><text fill="#000000" font-family="sans-serif" font-size="14" lengthAdjust="spacing" textLength="167.2549" x="172.6466" y="1409.6532">Upload Floor Plan (SVG)</text></g><!--entity UC_ZC--><g class="entity" data-qualified-name="Smart Utility Platform .Admin..Zone Management.UC_ZC" data-source-line="11" id="ent0007"><ellipse cx="256.2706" cy="1293.0041" fill="#F1F1F1" rx="62.5706" ry="14.9141" style="stroke:#181818;stroke-width:0.5;"/><text fill="#000000" font-family="sans-serif" font-size="14" lengthAdjust="spacing" textLength="86.9189" x="212.8111" y="1297.6525">Create Zone</text></g><!--entity UC_ZE--><g class="entity" data-qualified-name="Smart Utility Platform .Admin..Zone Management.UC_ZE" data-source-line="12" id="ent0008"><ellipse cx="256.2705" cy="1229.0036" fill="#F1F1F1" rx="50.5205" ry="14.5236" style="stroke:#181818;stroke-width:0.5;"/><text fill="#000000" font-family="sans-serif" font-size="14" lengthAdjust="spacing" textLength="67.2041" x="222.6684" y="1233.6521">Edit Zone</text></g><!--entity UC_ZD--><g class="entity" data-qualified-name="Smart Utility Platform .Admin..Zone Management.UC_ZD" data-source-line="13" id="ent0009"><ellipse cx="256.2695" cy="1165.0039" fill="#F1F1F1" rx="62.2695" ry="14.8539" style="stroke:#181818;stroke-width:0.5;"/><text fill="#000000" font-family="sans-serif" font-size="14" lengthAdjust="spacing" textLength="86.0918" x="213.2236" y="1169.6523">Delete Zone</text></g><!--entity UC_HC--><g class="entity" data-qualified-name="Smart Utility Platform .Admin..Smart Furniture Hookups Management.UC_HC" data-source-line="17" id="ent0011"><ellipse cx="256.2689" cy="1049.0018" fill="#F1F1F1" rx="120.4089" ry="26.4818" style="stroke:#181818;stroke-width:0.5;"/><text fill="#000000" font-family="sans-serif" font-size="14" lengthAdjust="spacing" textLength="220.2266" x="146.1557" y="1053.6502">Create Smart Furniture Hookup</text></g><!--entity UC_HE--><g class="entity" data-qualified-name="Smart Utility Platform .Admin..Smart Furniture Hookups Management.UC_HE" data-source-line="18" id="ent0012"><ellipse cx="256.2681" cy="963.0036" fill="#F1F1F1" rx="111.2181" ry="24.6436" style="stroke:#181818;stroke-width:0.5;"/><text fill="#000000" font-family="sans-serif" font-size="14" lengthAdjust="spacing" textLength="200.5117" x="156.0123" y="967.6521">Edit Smart Furniture Hookup</text></g><!--entity UC_HD--><g class="entity" data-qualified-name="Smart Utility Platform .Admin..Smart Furniture Hookups Management.UC_HD" data-source-line="19" id="ent0013"><ellipse cx="256.2712" cy="877.0042" fill="#F1F1F1" rx="120.0212" ry="26.4042" style="stroke:#181818;stroke-width:0.5;"/><text fill="#000000" font-family="sans-serif" font-size="14" lengthAdjust="spacing" textLength="219.3994" x="146.5715" y="881.6527">Delete Smart Furniture Hookup</text></g><!--entity UC_TC--><g class="entity" data-qualified-name="Smart Utility Platform .Admin..Thresholds Management.UC_TC" data-source-line="23" id="ent0015"><ellipse cx="256.2651" cy="758.003" fill="#F1F1F1" rx="75.7651" ry="17.553" style="stroke:#181818;stroke-width:0.5;"/><text fill="#000000" font-family="sans-serif" font-size="14" lengthAdjust="spacing" textLength="120.5791" x="195.9755" y="762.6515">Create Threshold</text></g><!--entity UC_TE--><g class="entity" data-qualified-name="Smart Utility Platform .Admin..Thresholds Management.UC_TE" data-source-line="24" id="ent0016"><ellipse cx="256.2731" cy="688.9966" fill="#F1F1F1" rx="67.8331" ry="15.9666" style="stroke:#181818;stroke-width:0.5;"/><text fill="#000000" font-family="sans-serif" font-size="14" lengthAdjust="spacing" textLength="100.8643" x="205.8409" y="693.645">Edit Threshold</text></g><!--entity UC_TDis--><g class="entity" data-qualified-name="Smart Utility Platform .Admin..Thresholds Management.UC_TDis" data-source-line="25" id="ent0017"><ellipse cx="256.2742" cy="619.9988" fill="#F1F1F1" rx="77.8942" ry="17.9788" style="stroke:#181818;stroke-width:0.5;"/><text fill="#000000" font-family="sans-serif" font-size="14" lengthAdjust="spacing" textLength="125.6855" x="193.4314" y="624.6473">Disable Threshold</text></g><!--entity UC_TD--><g class="entity" data-qualified-name="Smart Utility Platform .Admin..Thresholds Management.UC_TD" data-source-line="26" id="ent0018"><ellipse cx="256.2728" cy="550.0046" fill="#F1F1F1" rx="75.4228" ry="17.4846" style="stroke:#181818;stroke-width:0.5;"/><text fill="#000000" font-family="sans-serif" font-size="14" lengthAdjust="spacing" textLength="119.752" x="196.3968" y="554.653">Delete Threshold</text></g><!--entity UC_UC--><g class="entity" data-qualified-name="Smart Utility Platform .Admin..Household Users Management.UC_UC" data-source-line="30" id="ent0020"><ellipse cx="256.2747" cy="434.9969" fill="#F1F1F1" rx="100.5347" ry="22.5069" style="stroke:#181818;stroke-width:0.5;"/><text fill="#000000" font-family="sans-serif" font-size="14" lengthAdjust="spacing" textLength="177.2354" x="167.657" y="439.6454">Add New Household User</text></g><!--entity UC_UE--><g class="entity" data-qualified-name="Smart Utility Platform .Admin..Household Users Management.UC_UE" data-source-line="31" id="ent0021"><ellipse cx="256.2734" cy="358.0027" fill="#F1F1F1" rx="84.8634" ry="19.3727" style="stroke:#181818;stroke-width:0.5;"/><text fill="#000000" font-family="sans-serif" font-size="14" lengthAdjust="spacing" textLength="142.0098" x="185.2685" y="362.6511">Edit Household User</text></g><!--entity UC_UD--><g class="entity" data-qualified-name="Smart Utility Platform .Admin..Household Users Management.UC_UD" data-source-line="32" id="ent0022"><ellipse cx="256.2672" cy="282.9954" fill="#F1F1F1" rx="93.1772" ry="21.0354" style="stroke:#181818;stroke-width:0.5;"/><text fill="#000000" font-family="sans-serif" font-size="14" lengthAdjust="spacing" textLength="160.8975" x="175.8185" y="287.6439">Delete Household User</text></g><!--entity UC_AR--><g class="entity" data-qualified-name="Smart Utility Platform .Admin..Alerts Management.UC_AR" data-source-line="36" id="ent0024"><ellipse cx="256.2659" cy="167.9972" fill="#F1F1F1" rx="80.9359" ry="18.5872" style="stroke:#181818;stroke-width:0.5;"/><text fill="#000000" font-family="sans-serif" font-size="14" lengthAdjust="spacing" textLength="132.877" x="189.8274" y="172.6456">Mark Alert as Read</text></g><!--entity UC_AD--><g class="entity" data-qualified-name="Smart Utility Platform .Admin..Alerts Management.UC_AD" data-source-line="37" id="ent0025"><ellipse cx="256.2734" cy="99.9967" fill="#F1F1F1" rx="61.4334" ry="14.6867" style="stroke:#181818;stroke-width:0.5;"/><text fill="#000000" font-family="sans-serif" font-size="14" lengthAdjust="spacing" textLength="83.7744" x="214.3862" y="104.6451">Delete Alert</text></g><!--entity a--><g class="entity" data-qualified-name="a" data-source-line="4" id="ent0002"><ellipse cx="28.4321" cy="694.35" fill="#F1F1F1" rx="8" ry="8" style="stroke:#181818;stroke-width:0.5;"/><path d="M28.4321,702.35 L28.4321,729.35 M15.4321,710.35 L41.4321,710.35 M28.4321,729.35 L15.4321,744.35 M28.4321,729.35 L41.4321,744.35" fill="none" style="stroke:#181818;stroke-width:0.5;"/><text fill="#000000" font-family="sans-serif" font-size="14" lengthAdjust="spacing" textLength="44.8643" x="6" y="758.8451">Admin</text></g><!--link a to UC_FP--><g class="link" data-entity-1="ent0002" data-entity-2="ent0005" data-link-type="dependency" data-source-line="43" id="lnk26"><path d="M29.24,762.59 C28.94,887.94 30.63,1278.27 62.86,1324 C89.17,1361.33 130.4017,1379.9874 171.3717,1390.8874" fill="none" id="a-to-UC_FP" style="stroke:#181818;stroke-width:1;"/><polygon fill="#181818" points="177.17,1392.43,169.501,1386.2505,172.3381,1391.1445,167.4441,1393.9816,177.17,1392.43" style="stroke:#181818;stroke-width:1;"/></g><!--link a to UC_ZC--><g class="link" data-entity-1="ent0002" data-entity-2="ent0007" data-link-type="dependency" data-source-line="44" id="lnk27"><path d="M29.12,762.47 C28.53,879.28 29.66,1224.2 62.86,1261 C97.01,1298.84 151.5121,1303.6304 195.5821,1300.8304" fill="none" id="a-to-UC_ZC" style="stroke:#181818;stroke-width:1;"/><polygon fill="#181818" points="201.57,1300.45,192.3345,1297.0287,196.5801,1300.767,192.8417,1305.0126,201.57,1300.45" style="stroke:#181818;stroke-width:1;"/></g><!--link a to UC_ZE--><g class="link" data-entity-1="ent0002" data-entity-2="ent0008" data-link-type="dependency" data-source-line="45" id="lnk28"><path d="M29.47,762.37 C29.94,869.35 33.88,1165.15 62.86,1197 C99.67,1237.45 160.6334,1240.1289 205.0434,1236.1989" fill="none" id="a-to-UC_ZE" style="stroke:#181818;stroke-width:1;"/><polygon fill="#181818" points="211.02,1235.67,201.7024,1232.4789,206.0395,1236.1107,202.4076,1240.4478,211.02,1235.67" style="stroke:#181818;stroke-width:1;"/></g><!--link a to UC_ZD--><g class="link" data-entity-1="ent0002" data-entity-2="ent0009" data-link-type="dependency" data-source-line="46" id="lnk29"><path d="M30.65,762.33 C33.81,851.1 43.36,1065.19 62.86,1091 C94.8,1133.26 148.2099,1150.355 192.5799,1158.125" fill="none" id="a-to-UC_ZD" style="stroke:#181818;stroke-width:1;"/><polygon fill="#181818" points="198.49,1159.16,190.3149,1153.6675,193.5649,1158.2975,188.9349,1161.5476,198.49,1159.16" style="stroke:#181818;stroke-width:1;"/></g><!--link a to UC_HC--><g class="link" data-entity-1="ent0002" data-entity-2="ent0011" data-link-type="dependency" data-source-line="48" id="lnk30"><path d="M28.74,762.4 C28.33,830.86 31.5,970.11 62.86,1005 C81.99,1026.28 103.272,1036.9754 131.142,1043.5854" fill="none" id="a-to-UC_HC" style="stroke:#181818;stroke-width:1;"/><polygon fill="#181818" points="136.98,1044.97,129.146,1039.001,132.115,1043.8161,127.2998,1046.7851,136.98,1044.97" style="stroke:#181818;stroke-width:1;"/></g><!--link a to UC_HE--><g class="link" data-entity-1="ent0002" data-entity-2="ent0012" data-link-type="dependency" data-source-line="49" id="lnk31"><path d="M30.96,762.36 C33.8,813.12 41.67,898.79 62.86,921 C84.29,943.45 108.81,954.1165 139.15,960.0065" fill="none" id="a-to-UC_HE" style="stroke:#181818;stroke-width:1;"/><polygon fill="#181818" points="145.04,961.15,136.9672,955.5081,140.1316,960.1971,135.4426,963.3615,145.04,961.15" style="stroke:#181818;stroke-width:1;"/></g><!--link a to UC_HD--><g class="link" data-entity-1="ent0002" data-entity-2="ent0013" data-link-type="dependency" data-source-line="50" id="lnk32"><path d="M42.6,762.35 C47.65,772.96 54.32,783.8 62.86,792 C94.87,822.73 134.1694,841.4694 172.5794,854.7494" fill="none" id="a-to-UC_HD" style="stroke:#181818;stroke-width:1;"/><polygon fill="#181818" points="178.25,856.71,171.0511,849.9887,173.5245,855.0762,168.437,857.5495,178.25,856.71" style="stroke:#181818;stroke-width:1;"/></g><!--link a to UC_TC--><g class="link" data-entity-1="ent0002" data-entity-2="ent0015" data-link-type="dependency" data-source-line="52" id="lnk33"><path d="M51.09,727.26 C83.21,732.1 138.8469,740.4768 186.0069,747.5768" fill="none" id="a-to-UC_TC" style="stroke:#181818;stroke-width:1;"/><polygon fill="#181818" points="191.94,748.47,183.6358,743.1747,186.9957,747.7256,182.4448,751.0856,191.94,748.47" style="stroke:#181818;stroke-width:1;"/></g><!--link a to UC_TE--><g class="link" data-entity-1="ent0002" data-entity-2="ent0016" data-link-type="dependency" data-source-line="53" id="lnk34"><path d="M51.09,720.64 C84.76,715.43 144.8408,706.1189 192.7208,698.6989" fill="none" id="a-to-UC_TE" style="stroke:#181818;stroke-width:1;"/><polygon fill="#181818" points="198.65,697.78,189.1436,695.2055,193.709,698.5457,190.3687,703.1111,198.65,697.78" style="stroke:#181818;stroke-width:1;"/></g><!--link a to UC_TDis--><g class="link" data-entity-1="ent0002" data-entity-2="ent0017" data-link-type="dependency" data-source-line="54" id="lnk35"><path d="M40.98,685.4 C46.04,674.4 53.12,663.4 62.86,656 C95.61,631.13 134.4085,622.2007 172.5285,619.2007" fill="none" id="a-to-UC_TDis" style="stroke:#181818;stroke-width:1;"/><polygon fill="#181818" points="178.51,618.73,169.2239,615.4484,173.5254,619.1223,169.8516,623.4238,178.51,618.73" style="stroke:#181818;stroke-width:1;"/></g><!--link a to UC_TD--><g class="link" data-entity-1="ent0002" data-entity-2="ent0018" data-link-type="dependency" data-source-line="55" id="lnk36"><path d="M33.97,685.43 C39.04,649.21 48.48,598.6 62.86,585 C94.69,554.91 137.3026,546.4352 177.6926,545.2552" fill="none" id="a-to-UC_TD" style="stroke:#181818;stroke-width:1;"/><polygon fill="#181818" points="183.69,545.08,174.577,541.3445,178.6921,545.226,174.8106,549.3411,183.69,545.08" style="stroke:#181818;stroke-width:1;"/></g><!--link a to UC_UC--><g class="link" data-entity-1="ent0002" data-entity-2="ent0020" data-link-type="dependency" data-source-line="57" id="lnk37"><path d="M31.26,685.61 C34.49,633.13 42.84,542.59 62.86,517 C90.84,481.26 131.6008,462.5181 171.8908,451.0081" fill="none" id="a-to-UC_UC" style="stroke:#181818;stroke-width:1;"/><polygon fill="#181818" points="177.66,449.36,167.9074,447.9861,172.8523,450.7334,170.105,455.6783,177.66,449.36" style="stroke:#181818;stroke-width:1;"/></g><!--link a to UC_UE--><g class="link" data-entity-1="ent0002" data-entity-2="ent0021" data-link-type="dependency" data-source-line="58" id="lnk38"><path d="M30.8,685.47 C34.08,603.19 43.58,416.07 62.86,395 C90.65,364.63 129.158,355.0201 168.378,352.9901" fill="none" id="a-to-UC_UE" style="stroke:#181818;stroke-width:1;"/><polygon fill="#181818" points="174.37,352.68,165.1753,349.1506,169.3767,352.9385,165.5888,357.1399,174.37,352.68" style="stroke:#181818;stroke-width:1;"/></g><!--link a to UC_UD--><g class="link" data-entity-1="ent0002" data-entity-2="ent0022" data-link-type="dependency" data-source-line="59" id="lnk39"><path d="M30.03,685.58 C31.87,590.11 38.89,347.83 62.86,321 C88.16,292.69 121.9429,282.3542 158.7729,279.1242" fill="none" id="a-to-UC_UD" style="stroke:#181818;stroke-width:1;"/><polygon fill="#181818" points="164.75,278.6,155.435,275.4016,159.7691,279.0368,156.1339,283.371,164.75,278.6" style="stroke:#181818;stroke-width:1;"/></g><!--link a to UC_AR--><g class="link" data-entity-1="ent0002" data-entity-2="ent0024" data-link-type="dependency" data-source-line="61" id="lnk40"><path d="M29.81,685.52 C31.19,578.22 37.31,281.22 62.86,246 C91.44,206.62 137.538,188.4046 180.258,178.7346" fill="none" id="a-to-UC_AR" style="stroke:#181818;stroke-width:1;"/><polygon fill="#181818" points="186.11,177.41,176.449,175.4957,181.2334,178.5139,178.2152,183.2983,186.11,177.41" style="stroke:#181818;stroke-width:1;"/></g><!--link a to UC_AD--><g class="link" data-entity-1="ent0002" data-entity-2="ent0025" data-link-type="dependency" data-source-line="62" id="lnk41"><path d="M30.29,685.79 C33.31,558.04 44.35,152.64 62.86,132 C97.12,93.81 152.2332,89.2229 196.4032,92.1529" fill="none" id="a-to-UC_AD" style="stroke:#181818;stroke-width:1;"/><polygon fill="#181818" points="202.39,92.55,193.6745,87.9631,197.401,92.2191,193.145,95.9455,202.39,92.55" style="stroke:#181818;stroke-width:1;"/></g><?plantuml-src ZPJ1Ze8m48RlFCM4o-h1LzZ4W2uNDqPX3rusip1gOsb9Mx8nctttBIXOLnfiEBIPx_yxVw5msXim4XGx70qKJ55kc1I1FZ5HeS8IAinFUA2jENE2fepYm2a8C3TIGJWlIYP2G0qO17qPmcs9oa1c66Vc36kEPYzL2PEMduRm4u0TLtC8brnQjugZw4hDg3Nbg6qvgxZ40YwKDHCmsNwyJTjzi-XpkMubl_UUEoa8LYZieYHX1eqZHMW86hGpsqMFsA9WvXvQF48nSVhl5LyRk-_iSZZBMWbcQaMGI7cgA_raiyFgRil4r_w8p1zeH3WSCJqgqaV9YsTJzOBEEFK5UII7UcSQl_YGhQruemxGW-aIQPKD1vacDHfnNXJmJjzmB-lso7n1FRZ_JNa4mndcd9GPRNs5wWGjshXj2FkZcM-yVRHyp_NRs-S58Yd4vIUZ0uJPxFLwWVkvlN-t-SAPny5jaJXGua292wKEb3fG-mauAqUIEPBCaMGkP9FVvl4V?></g><script xmlns=""/></svg>