<?plantuml 1.2026.1beta5?>
<svg xmlns="http://www.w3.org/2000/svg" xmlns:xlink="http://www.w3.org/1999/xlink" contentStyleType="text/css" data-diagram-type="DESCRIPTION" height="526px" preserveAspectRatio="none" style="width:882px;height:526px;background:#FFFFFF;" version="1.1" viewBox="0 0 882 526" width="882px" zoomAndPan="magnify"><defs/><g><!--cluster Authentication Operations--><g class="cluster" data-qualified-name="Authentication Operations" data-source-line="16" id="ent0008"><rect fill="none" height="513" rx="2.5" ry="2.5" style="stroke:#181818;stroke-width:1;" width="295.06" x="349.87" y="7"/><text fill="#000000" font-family="sans-serif" font-size="14" font-weight="bold" lengthAdjust="spacing" textLength="209.2891" x="392.7555" y="21.9951">Authentication Operations</text></g><!--cluster Authentication--><g class="cluster" data-qualified-name="Authentication Operations.Authentication" data-source-line="18" id="ent0009"><rect fill="none" height="163" rx="2.5" ry="2.5" style="stroke:#181818;stroke-width:1;" width="247.06" x="373.87" y="50"/><text fill="#000000" font-family="sans-serif" font-size="14" font-weight="bold" lengthAdjust="spacing" textLength="117.2363" x="438.7818" y="64.9951">Authentication</text></g><!--cluster Credentials Management--><g class="cluster" data-qualified-name="Authentication Operations.Credentials Management" data-source-line="23" id="ent0012"><rect fill="none" height="259" rx="2.5" ry="2.5" style="stroke:#181818;stroke-width:1;" width="213.07" x="390.87" y="237"/><text fill="#000000" font-family="sans-serif" font-size="14" font-weight="bold" lengthAdjust="spacing" textLength="198.1533" x="398.3283" y="251.9951">Credentials Management</text></g><!--entity UC_Login--><g class="entity" data-qualified-name="Authentication Operations.Authentication.UC_Login" data-source-line="19" id="ent0010"><ellipse cx="497.3973" cy="108.9955" fill="#F1F1F1" rx="107.5273" ry="23.9055" style="stroke:#181818;stroke-width:0.5;"/><text fill="#000000" font-family="sans-serif" font-size="14" lengthAdjust="spacing" textLength="192.5205" x="401.1371" y="113.6439">User Authentication (Login)</text></g><!--entity UC_Logout--><g class="entity" data-qualified-name="Authentication Operations.Authentication.UC_Logout" data-source-line="20" id="ent0011"><ellipse cx="497.3982" cy="182.0036" fill="#F1F1F1" rx="37.0682" ry="14.5236" style="stroke:#181818;stroke-width:0.5;"/><text fill="#000000" font-family="sans-serif" font-size="14" lengthAdjust="spacing" textLength="48.1797" x="473.3083" y="186.6521">Logout</text></g><!--entity UC_Reset--><g class="entity" data-qualified-name="Authentication Operations.Credentials Management.UC_Reset" data-source-line="24" id="ent0013"><ellipse cx="497.3977" cy="298.0031" fill="#F1F1F1" rx="84.1577" ry="25.7731" style="stroke:#181818;stroke-width:0.5;"/><text fill="#000000" font-family="sans-serif" font-size="14" lengthAdjust="spacing" textLength="110.4551" x="442.1702" y="294.1129">Reset Password</text><text fill="#000000" font-family="sans-serif" font-size="14" lengthAdjust="spacing" textLength="116.1563" x="439.3196" y="310.4098">(via Reset Code)</text></g><!--entity UC_ChangePw--><g class="entity" data-qualified-name="Authentication Operations.Credentials Management.UC_ChangePw" data-source-line="25" id="ent0014"><ellipse cx="497.4041" cy="383.9953" fill="#F1F1F1" rx="88.5341" ry="25.4253" style="stroke:#181818;stroke-width:0.5;"/><text fill="#000000" font-family="sans-serif" font-size="14" lengthAdjust="spacing" textLength="124.3184" x="435.2449" y="381.3874">Change Password</text><text fill="#000000" font-family="sans-serif" font-size="14" lengthAdjust="spacing" textLength="109.8672" x="442.4705" y="397.6843">(Authenticated)</text></g><!--entity UC_UpdateUser--><g class="entity" data-qualified-name="Authentication Operations.Credentials Management.UC_UpdateUser" data-source-line="26" id="ent0015"><ellipse cx="497.3979" cy="461.9996" fill="#F1F1F1" rx="78.3479" ry="18.0696" style="stroke:#181818;stroke-width:0.5;"/><text fill="#000000" font-family="sans-serif" font-size="14" lengthAdjust="spacing" textLength="126.7656" x="434.0151" y="466.648">Update Username</text></g><!--entity Guest--><g class="entity" data-qualified-name="Guest" data-source-line="5" id="ent0002"><ellipse cx="253.1629" cy="79.35" fill="#F1F1F1" rx="8" ry="8" style="stroke:#181818;stroke-width:0.5;"/><path d="M253.1629,87.35 L253.1629,114.35 M240.1629,95.35 L266.1629,95.35 M253.1629,114.35 L240.1629,129.35 M253.1629,114.35 L266.1629,129.35" fill="none" style="stroke:#181818;stroke-width:0.5;"/><text fill="#000000" font-family="sans-serif" font-size="14" lengthAdjust="spacing" textLength="153.4258" x="176.45" y="143.8451">Unauthenticated User</text></g><!--entity U--><g class="entity" data-qualified-name="U" data-source-line="6" id="ent0003"><ellipse cx="253.1651" cy="348.35" fill="#F1F1F1" rx="8" ry="8" style="stroke:#181818;stroke-width:0.5;"/><path d="M253.1651,356.35 L253.1651,383.35 M240.1651,364.35 L266.1651,364.35 M253.1651,383.35 L240.1651,398.35 M253.1651,383.35 L266.1651,398.35" fill="none" style="stroke:#181818;stroke-width:0.5;"/><text fill="#000000" font-family="sans-serif" font-size="14" lengthAdjust="spacing" textLength="31.9102" x="237.21" y="412.8451">User</text></g><!--entity A--><g class="entity" data-qualified-name="A" data-source-line="7" id="ent0004"><ellipse cx="61.2221" cy="275.35" fill="#F1F1F1" rx="8" ry="8" style="stroke:#181818;stroke-width:0.5;"/><path d="M61.2221,283.35 L61.2221,310.35 M48.2221,291.35 L74.2221,291.35 M61.2221,310.35 L48.2221,325.35 M61.2221,310.35 L74.2221,325.35" fill="none" style="stroke:#181818;stroke-width:0.5;"/><text fill="#000000" font-family="sans-serif" font-size="14" lengthAdjust="spacing" textLength="44.8643" x="38.79" y="339.8451">Admin</text></g><!--entity HU--><g class="entity" data-qualified-name="HU" data-source-line="8" id="ent0005"><ellipse cx="61.2241" cy="404.35" fill="#F1F1F1" rx="8" ry="8" style="stroke:#181818;stroke-width:0.5;"/><path d="M61.2241,412.35 L61.2241,439.35 M48.2241,420.35 L74.2241,420.35 M61.2241,439.35 L48.2241,454.35 M61.2241,439.35 L74.2241,454.35" fill="none" style="stroke:#181818;stroke-width:0.5;"/><text fill="#000000" font-family="sans-serif" font-size="14" lengthAdjust="spacing" textLength="110.4482" x="6" y="468.8451">Household User</text></g><g class="entity" data-qualified-name="GMN21" data-source-line="46" id="ent0022"><path d="M664.93,277.87 L664.93,294 L581.9,298 L664.93,302 L664.93,318.1356 A0,0 0 0 0 664.93,318.1356 L875.7186,318.1356 A0,0 0 0 0 875.7186,318.1356 L875.7186,287.87 L865.7186,277.87 L664.93,277.87 A0,0 0 0 0 664.93,277.87" fill="#FEFFDD" style="stroke:#181818;stroke-width:0.5;"/><path d="M865.7186,277.87 L865.7186,287.87 L875.7186,287.87 L865.7186,277.87" fill="#FEFFDD" style="stroke:#181818;stroke-width:0.5;"/><text fill="#000000" font-family="sans-serif" font-size="13" lengthAdjust="spacing" textLength="189.7886" x="670.93" y="294.9369">Triggered from "Log in" page</text><text fill="#000000" font-family="sans-serif" font-size="13" lengthAdjust="spacing" textLength="120.0405" x="670.93" y="310.0697">using a reset code</text></g><!--link A to U--><g class="link" data-entity-1="ent0004" data-entity-2="ent0003" data-link-type="extension" data-source-line="13" id="lnk6"><path d="M84.01,313.37 C122.89,328.32 186.4876,352.7641 220.0876,365.6741" fill="none" id="A-to-U" style="stroke:#181818;stroke-width:1;"/><polygon fill="none" points="236.89,372.13,222.2396,360.0733,217.9356,371.2749,236.89,372.13" style="stroke:#181818;stroke-width:1;"/></g><!--link HU to U--><g class="link" data-entity-1="ent0005" data-entity-2="ent0003" data-link-type="extension" data-source-line="14" id="lnk7"><path d="M116.91,417.88 C157.89,405.79 193.9049,395.181 219.6449,387.591" fill="none" id="HU-to-U" style="stroke:#181818;stroke-width:1;"/><polygon fill="none" points="236.91,382.5,217.948,381.836,221.3419,393.346,236.91,382.5" style="stroke:#181818;stroke-width:1;"/></g><!--link Guest to UC_Login--><g class="link" data-entity-1="ent0002" data-entity-2="ent0010" data-link-type="dependency" data-source-line="33" id="lnk16"><path d="M330.14,109 C349.01,109 363.59,109 383.63,109" fill="none" id="Guest-to-UC_Login" style="stroke:#181818;stroke-width:1;"/><polygon fill="#181818" points="389.63,109,380.63,105,384.63,109,380.63,113,389.63,109" style="stroke:#181818;stroke-width:1;"/></g><!--link U to UC_Logout--><g class="link" data-entity-1="ent0003" data-entity-2="ent0011" data-link-type="dependency" data-source-line="36" id="lnk17"><path d="M269.57,348.65 C284.93,321.71 310.67,282.12 341.87,256 C380.08,224.02 428.7611,204.1465 461.7811,192.8865" fill="none" id="U-to-UC_Logout" style="stroke:#181818;stroke-width:1;"/><polygon fill="#181818" points="467.46,190.95,457.6506,190.0689,462.7276,192.5638,460.2327,197.6407,467.46,190.95" style="stroke:#181818;stroke-width:1;"/></g><!--link U to UC_ChangePw--><g class="link" data-entity-1="ent0003" data-entity-2="ent0014" data-link-type="dependency" data-source-line="37" id="lnk18"><path d="M269.31,378.38 C296.92,379.06 351.3118,380.4011 402.8818,381.6811" fill="none" id="U-to-UC_ChangePw" style="stroke:#181818;stroke-width:1;"/><polygon fill="#181818" points="408.88,381.83,399.982,377.6079,403.8815,381.7059,399.7835,385.6055,408.88,381.83" style="stroke:#181818;stroke-width:1;"/></g><!--link A to UC_Reset--><g class="link" data-entity-1="ent0004" data-entity-2="ent0013" data-link-type="dependency" data-source-line="40" id="lnk19"><path d="M84.05,304.65 C143.55,303.69 304.9508,301.0868 407.2408,299.4368" fill="none" id="A-to-UC_Reset" style="stroke:#181818;stroke-width:1;"/><polygon fill="#181818" points="413.24,299.34,404.1767,295.4857,408.2407,299.4206,404.3057,303.4846,413.24,299.34" style="stroke:#181818;stroke-width:1;"/></g><!--link HU to UC_UpdateUser--><g class="link" data-entity-1="ent0005" data-entity-2="ent0015" data-link-type="dependency" data-source-line="43" id="lnk20"><path d="M116.77,437.52 C193.75,442.48 328.5524,451.1737 415.3524,456.7737" fill="none" id="HU-to-UC_UpdateUser" style="stroke:#181818;stroke-width:1;"/><polygon fill="#181818" points="421.34,457.16,412.6162,452.5889,416.3504,456.8381,412.1011,460.5723,421.34,457.16" style="stroke:#181818;stroke-width:1;"/></g><?plantuml-src RLJ1Rk8m4BtxAqPSoXv0whRdIb646gGk84XkAwscoP1O3NPa6n3QxR_ls24XJSd9Vfvvdddpd9hs3fm68ylAGI4DvKvg9Uo7L0qQF423-GUMj7ENci0Veofh4k81PhCPH76wtkxyKc3kj859fl3eAb9EvkYeWCoIcG1QU3sITNrKXsOT4XK7gG8KTL2YZvOgNGz8agoxURbA5jjb6gtY1MmNRr6wNAzsoNBJ5lC0QIKjs4gVBRWA7GH-2wWA-ChBc26m3ULoBtDmbuOiw7rxDWzCT06fAZAIjQe8y5tMqbsyRc-wr4SNMEEAbI7OeBLdROgvYBYIVo_SOP9rAz4Bo0tVP6B5OTsG2IixWRz207zNwSUX_Xok7pUIewLMK1XHJhawgNwqEiT_mkvxPjl288Xt8UfpL4LigF3iM5luXOgn0s_lLhCbIwwNuhUQdYH22yQweBwa07rF7qd9-T7GKtrw6xSvtv6ZAJWop53XWRg45lRejSFFpawzXO9z67oSmpqhW-xd98AZEVxbfYud_fp3AoasIpvEW6bqGbdZEu-VlKCdCXUj26fTbapFenBPWCxFeT_thV8DJtFOTNODjXuM5NKPhROS_Zm8_shzOLxINpKGIIZDAhO_1_yaRXDB6Io97G5xem_1HU3VRyEs47uGKfM0_CFmCyzvveBuZNYw_m00?></g><script xmlns=""/></svg>